<svg width="34" height="34" viewBox="0 0 34 34" fill="none" xmlns="http://www.w3.org/2000/svg">
<path d="M17.0001 32.8659C20.1263 32.8659 22.6605 31.6968 22.6605 30.2548C22.6605 28.8127 20.1263 27.6437 17.0001 27.6437C13.8739 27.6437 11.3396 28.8127 11.3396 30.2548C11.3396 31.6968 13.8739 32.8659 17.0001 32.8659Z" fill="#D44A28"/>
<path d="M26.4375 22.9633C26.4375 26.8892 22.2114 31.1604 16.9999 31.1604C11.7883 31.1604 7.56219 26.8892 7.56219 22.9633C7.56219 19.0373 26.4375 19.0373 26.4375 22.9633Z" fill="#ED603A"/>
<path d="M16.9999 25.0671C22.1535 25.0671 26.3313 23.8398 26.3313 22.3258C26.3313 20.8119 22.1535 19.5846 16.9999 19.5846C11.8463 19.5846 7.66852 20.8119 7.66852 22.3258C7.66852 23.8398 11.8463 25.0671 16.9999 25.0671Z" fill="#FF8A65"/>
<path d="M24.8917 22.1399C24.8917 23.0085 21.9327 23.9701 17 23.9701C12.147 23.9701 9.10828 23.0085 9.10828 22.1399C9.10828 21.2713 12.6411 20.238 17 20.238C21.3589 20.238 24.8917 21.274 24.8917 22.1399Z" fill="#5D4037"/>
<path opacity="0.18" d="M26.3206 22.448C26.3259 22.4082 26.3313 22.3657 26.3313 22.3258C26.3313 20.8118 22.153 19.5846 16.9999 19.5846C11.8467 19.5846 7.66845 20.8118 7.66845 22.3258C7.66845 22.3657 7.67376 22.4082 7.67907 22.448C7.60204 22.6127 7.56219 22.7854 7.56219 22.9633C7.56219 24.7669 8.3936 26.459 9.63673 27.8376C9.81469 28.0341 12.1708 27.4763 13.6875 26.5758C16.5961 24.8519 18.915 23.9143 18.915 23.9143C18.915 23.9143 17.818 23.9647 16.9972 23.9647C12.1442 23.9647 9.10548 23.0032 9.10548 22.1346C9.10548 21.266 12.6383 20.2327 16.9972 20.2327C21.3561 20.2327 24.8889 21.266 24.8889 22.1346C24.8889 22.7508 23.3934 23.4149 20.7611 23.7469C21.0055 23.7443 21.3933 23.7788 21.8608 23.9647C23.2872 24.5279 25.205 26.9424 25.7203 25.8401C26.1692 24.8758 26.4349 24.0657 26.4349 22.958C26.4375 22.7827 26.395 22.6101 26.3206 22.448Z" fill="#212121"/>
<path d="M22.735 12.4126C22.7457 12.3356 22.7908 11.9504 22.1985 11.8388C21.6061 11.7273 21.1333 11.7724 21.1333 11.7724L20.796 10.8135C21.0536 9.94228 21.4813 9.53587 21.1174 8.63806C21.0324 8.43087 20.5782 8.30869 20.2036 8.41494C20.2036 8.41494 19.8318 8.40431 19.5104 8.63009C19.2341 8.82666 18.0707 9.80947 17.8714 9.23306C17.7891 8.994 17.9086 8.85056 18.416 8.48666C18.8702 8.16259 19.3749 7.889 19.7733 7.49587C20.456 6.81853 20.0257 5.86759 20.0257 5.86759C20.0257 5.86759 19.4838 5.66306 19.0508 5.99244C18.7214 6.24212 18.4638 6.38556 18.3097 6.48916C17.558 6.99384 17.5102 6.26072 17.9883 5.9765L18.8755 5.37884C19.7893 4.744 19.3802 3.71869 19.3802 3.71869C19.3802 3.71869 19.1172 3.63634 18.7719 3.87275C18.6497 3.95775 18.5196 4.07197 18.3283 4.16494C18.0468 4.30041 17.8555 4.37212 17.7466 4.17822C17.6722 4.0454 17.8077 3.88337 18.068 3.69744C18.3655 3.48759 18.5275 3.45306 18.7347 3.15822C19.0561 2.704 18.9711 2.13025 18.8861 2.00806C18.8038 1.88853 18.1636 2.59509 18.0468 2.32416C17.9564 2.11431 18.2433 1.73181 17.9379 1.18994C17.7094 0.786187 17.2818 0.602905 17.2818 0.602905C16.955 1.03853 16.9152 1.77431 17.1888 2.25244C17.3561 2.54462 17.5474 2.80759 17.3747 2.96697C17.2525 3.07853 17.0958 2.92447 16.8408 2.75712C16.4557 2.50744 15.9483 2.704 15.9483 2.704C15.9483 2.704 15.7225 3.35744 16.0705 3.79041C16.3229 4.1065 16.5274 4.22603 16.9179 4.55541C17.3349 4.90603 17.0879 5.30447 16.5938 5.0415C16.4211 4.94853 16.1794 4.75728 15.9111 4.64041C15.5127 4.46509 14.9389 4.73337 14.9389 4.73337C14.9389 4.73337 14.7238 5.71353 15.271 6.0615C15.4569 6.18103 16.2325 6.699 16.4955 6.83447C17.04 7.11603 16.9099 7.804 16.2989 7.51447C15.8633 7.30728 15.3985 6.95931 14.9177 6.74947C14.2802 6.47056 13.8525 6.76806 13.8525 6.76806C13.8525 6.76806 13.6613 7.62337 14.1527 8.1015C14.4768 8.41759 15.263 8.93291 15.5738 9.11884C15.8739 9.29681 16.3414 9.49337 16.2352 9.71384C15.9457 10.3195 15.0133 9.87587 14.5963 9.63947C13.8579 9.21978 13.0796 8.92228 12.6413 9.26494C12.2004 9.61025 12.5218 10.6621 12.5058 11.1243C12.4686 12.1496 13.3346 12.1921 13.6374 13.0501C13.6958 13.2174 13.6825 13.4034 13.6719 13.5813C13.6002 14.7527 13.6958 15.9374 13.9508 17.0823C13.98 17.2124 14.0172 17.3532 14.1182 17.4382C14.2164 17.5232 14.3572 17.5392 14.4874 17.5498C15.8182 17.6667 17.1569 17.7251 18.493 17.7251C19.5024 17.7251 20.5357 17.6852 21.468 17.3001C21.638 17.2284 21.816 17.1381 21.9089 16.9787C21.9913 16.8406 21.3379 15.0343 21.4414 14.9121C22.0497 14.1923 22.6155 13.2174 22.735 12.4126Z" fill="url(#paint0_linear_0_182)"/>
<path d="M32.1407 10.4949C31.984 10.4763 31.8777 10.5055 31.9548 10.3355C32.0504 10.1203 32.0743 10.0433 32.1115 9.89455C32.2018 9.51736 32.0584 9.26501 32.0584 9.26501C32.0584 9.26501 31.5484 9.32345 31.3146 9.79626C31.1924 10.0433 31.0171 10.6489 30.7223 10.4364C30.6001 10.3461 30.709 10.1974 30.7249 9.95298C30.7621 9.43501 30.3557 9.33142 30.3557 9.33142C30.3557 9.33142 29.8537 9.47751 29.7209 9.93705C29.6093 10.3275 29.5827 10.54 29.5216 10.8986C29.4632 11.2439 29.5031 11.4139 29.256 11.4777C29.0435 11.5335 28.9213 11.3714 28.9479 11.1111C28.9824 10.7392 28.9851 10.4178 28.9851 10.4178C29.0621 9.84142 28.4724 9.74845 28.4724 9.74845C28.4724 9.74845 27.8562 9.80158 27.6915 10.4842C27.6012 10.8641 27.5773 11.0181 27.4949 11.5308C27.4551 11.7752 27.4524 12.086 27.2399 12.2719C27.0141 12.4685 26.7512 12.2931 26.7591 11.8681C26.7645 11.5547 26.799 11.3608 26.7777 10.8986C26.7565 10.4364 26.2598 10.4072 26.2598 10.4072C26.2598 10.4072 25.4921 10.7366 25.4629 11.5281C25.4416 12.0806 25.4284 12.9864 25.4443 13.2441C25.4443 13.2441 25.5213 13.7222 25.1468 13.8683C24.9184 13.9533 24.6554 13.8099 24.6421 13.3928C24.6235 12.8377 24.6395 12.7819 24.6076 12.078C24.5784 11.4192 24.0418 11.2306 24.0418 11.2306C24.0418 11.2306 23.2263 11.321 23.0696 12.1072C22.9766 12.5667 22.9846 14.5775 22.3206 14.5563C21.5502 14.5297 19.9937 12.843 19.4624 14.7581C19.3721 15.0795 19.1835 15.3744 18.9126 15.5683C18.5593 15.826 18.1131 15.9056 17.6907 16.0252C16.2962 16.4183 15.0823 17.3374 14.2482 18.5114C13.8073 19.133 12.3702 21.7919 13.2123 22.4081C13.5124 22.6286 14.4979 22.5489 14.9043 22.5489C15.8048 22.5516 16.7026 22.5542 17.6031 22.5542C18.9152 22.5569 20.2248 22.5595 21.537 22.5649C21.5848 22.2886 21.5954 22.0203 21.5795 21.7574L21.9327 21.76L24.4774 21.8583C24.4774 21.8583 24.9954 20.8755 25.4709 20.663C25.5346 20.6338 26.467 19.9458 26.4377 19.882C26.0659 19.0586 23.9781 18.2697 23.9781 18.2697C24.3154 18.2431 24.8095 17.8606 25.7126 18.3494C26.7884 18.9311 27.4471 18.6655 27.4471 18.6655C27.4471 18.6655 27.6862 18.3069 26.9849 17.4117C26.6184 16.9416 25.0007 16.1128 25.0007 16.1128C24.8254 15.9933 24.3606 15.8738 24.5784 15.5311C24.7271 15.2947 25.354 15.4992 25.9038 15.7994C26.3687 16.0544 26.289 16.0836 27.3302 16.66C27.9784 17.0186 28.8735 16.66 28.8735 16.66C28.8735 16.66 28.9213 15.8499 28.3556 15.3345C27.8774 14.8989 26.7777 14.2402 26.7777 14.2402C26.5227 14.0224 26.4829 13.847 26.6901 13.7328C26.9902 13.5708 27.3515 13.7966 27.6915 13.9692C28.0315 14.1419 28.9638 14.5988 28.9638 14.5988C29.4898 14.8856 30.2999 14.7953 30.2999 14.7953C30.2999 14.7953 30.4806 14.1472 30.2229 13.8391C29.851 13.3928 28.7806 12.9174 28.7806 12.9174C28.5123 12.7208 28.4432 12.6013 28.5946 12.4392C28.746 12.2799 28.8841 12.2825 29.3331 12.4924C29.8059 12.7155 30.1724 12.8961 30.5974 13.0342C31.0224 13.1724 31.8034 12.9094 31.8034 12.9094C31.8034 12.9094 31.7795 12.3064 31.381 12.0408C31.0729 11.8363 30.701 11.6875 30.701 11.6875C30.4938 11.6158 30.3318 11.4511 30.4354 11.2572C30.5576 11.0341 31.0304 11.2253 31.3306 11.2838C31.7688 11.3688 32.0079 11.39 32.4621 11.2253C32.7596 11.1164 32.927 10.811 32.927 10.811C32.927 10.811 32.8898 10.5878 32.1407 10.4949Z" fill="url(#paint1_radial_0_182)"/>
<path d="M21.9777 16.4821C21.5819 16.1421 21.0454 15.9588 20.5247 16.0172C20.2644 16.0464 20.0041 16.1288 19.7411 16.1075C19.4782 16.0836 19.1993 15.9057 19.186 15.6427C19.178 15.47 19.2816 15.316 19.3719 15.1699C19.6083 14.7874 19.781 14.3305 19.6747 13.8949C19.5685 13.4592 19.0877 13.1007 18.668 13.26C18.2696 13.4114 18.1394 13.8975 18.004 14.3013C17.8207 14.8511 17.5311 15.3664 17.1593 15.8127C16.9972 16.0066 16.7582 16.2058 16.5165 16.1288C16.1685 16.0225 16.883 14.0436 16.1233 12.418C15.8949 11.9319 15.7036 11.491 15.5177 11.491C15.1963 11.491 15.0901 12.5827 14.9997 12.9785C14.9201 13.3317 14.7394 14.0091 14.3968 14.0569C14.1683 14.0888 13.8894 13.7222 13.8177 13.5788C13.5787 13.106 13.1244 11.9213 12.6144 11.6503C12.224 11.4458 11.7618 11.7247 11.7618 12.3782C11.7618 12.5986 12.2346 14.0622 12.5374 14.875C12.633 15.1327 12.123 15.3213 11.8707 14.8405C11.8707 14.8405 11.0924 13.5416 10.7869 13.1033C10.3301 12.4446 9.50131 12.5641 9.50131 12.5641C9.50131 12.5641 9.16662 13.1086 9.44553 13.9028C9.67662 14.5669 9.65271 14.3916 9.85459 14.9096C10.0087 15.3 9.82271 15.5338 9.58099 15.5471C9.1799 15.5603 9.06037 15.0928 9.06037 15.0928C8.97271 14.8511 8.60084 14.025 8.36178 13.5283C8.01912 12.8138 7.18506 12.8164 7.18506 12.8164C7.18506 12.8164 6.73881 13.0396 6.90349 13.4725C7.06818 13.9055 7.17709 14.0702 7.30724 14.3544C7.48521 14.7422 7.31256 15.0078 7.02834 14.9175C6.76271 14.8325 6.63521 14.5483 6.49974 14.3385C6.22084 13.9002 6.13849 13.77 5.90209 13.4592C5.4824 12.8988 4.89271 13.0927 4.89271 13.0927C4.89271 13.0927 4.38803 13.4141 4.68818 13.9108C4.68818 13.9108 4.81834 14.203 4.99896 14.5324C5.12381 14.7608 5.07865 14.9574 4.86084 14.9919C4.6085 15.0317 4.57928 14.8591 4.38803 14.5669C4.18881 14.2641 4.0799 14.0782 3.82225 13.7647C3.51678 13.3955 2.99881 13.4619 2.99881 13.4619C2.99881 13.4619 2.66943 13.7169 2.9085 14.1791C3.02006 14.3969 3.18209 14.4899 3.10506 14.62C2.92178 14.9335 2.51803 14.4474 2.30818 14.2694C1.90443 13.9294 1.41303 14.0782 1.41303 14.0782C1.41303 14.0782 1.38115 14.3703 1.6149 14.6785C1.70787 14.8007 1.761 14.8617 1.93365 15.0211C2.07178 15.1486 1.96287 15.1619 1.8274 15.2416C1.17662 15.6241 1.23506 15.8419 1.23506 15.8419C1.23506 15.8419 1.50865 16.0544 1.82475 16.0385C2.30818 16.0119 2.51803 15.895 2.88725 15.6427C3.13959 15.47 3.49818 15.1035 3.6974 15.2628C3.87006 15.3983 3.78771 15.6161 3.62568 15.7649C3.62568 15.7649 3.34412 16.0491 3.14225 16.3599C2.88193 16.761 3.09975 17.3241 3.09975 17.3241C3.09975 17.3241 3.92318 17.2497 4.25521 16.9575C4.5899 16.6627 4.85287 16.3492 5.19818 15.9588C5.52756 15.5869 5.6524 15.5285 5.85428 15.6161C6.05615 15.7011 6.04021 15.8392 5.87287 16.1288C5.87287 16.1288 5.07865 16.9921 4.91396 17.5499C4.79975 17.935 5.22475 18.4583 5.22475 18.4583C5.22475 18.4583 6.00303 18.2192 6.37224 17.7464C6.37224 17.7464 7.04693 16.9549 7.28865 16.6627C7.53303 16.3705 7.77474 16.0172 8.11474 16.0491C8.34849 16.0703 8.38303 16.2483 8.23693 16.5485C8.23693 16.5485 7.49053 17.5897 7.2249 18.1794C6.91146 18.8753 7.27537 19.6005 7.27537 19.6005C7.27537 19.6005 8.24225 19.5713 8.69115 18.9869C9.41631 18.0413 9.33131 18.0466 9.65803 17.6296C10.0432 17.1355 10.5372 16.6972 10.7657 16.8539C11.103 17.085 10.7232 17.3772 10.609 17.5578C10.609 17.5578 9.51459 18.9816 9.30474 19.5394C8.99396 20.3602 9.33928 21.25 9.33928 21.25C9.33928 21.25 10.2955 21.1703 11.0526 20.2725C11.1854 20.1158 11.2996 19.975 11.4058 19.8475L12.0062 20.2486C11.7219 20.7507 11.5121 21.266 11.3129 21.8928C11.7963 21.7308 14.0966 22.5463 14.0966 22.5463L21.5341 22.5649C21.5819 22.2886 21.5926 22.0203 21.5766 21.7574L21.9299 21.76L24.4746 21.8583C24.4746 21.8583 24.9926 20.8755 25.468 20.663C25.5318 20.6338 25.5504 20.5567 25.5052 20.5036C25.0961 20.0414 24.6074 19.4783 24.0522 19.1861C23.5715 18.9338 23.0668 19.0188 22.8038 18.4158C22.5276 17.7863 22.6232 17.1461 22.1185 16.6175C22.076 16.5697 22.0282 16.5246 21.9777 16.4821Z" fill="url(#paint2_radial_0_182)"/>
<path d="M19.9086 15.1725C19.6217 15.0158 19.5101 14.7953 19.7173 14.6306C19.8103 14.5562 20.1768 14.705 20.8515 14.8883C21.7228 15.1247 22.2434 15.2734 22.7933 15.2495C23.9062 15.2044 24.0656 14.2401 24.0656 14.2401C24.0656 14.2401 23.9301 13.8337 22.8942 13.762C22.4931 13.7355 21.7759 13.5867 21.2022 13.422C20.6709 13.2706 20.2273 12.9837 20.4929 12.7261C20.6523 12.572 20.979 12.7155 21.3429 12.7792C22.1398 12.92 22.7906 13.0767 23.2926 13.09C24.3498 13.1192 24.7111 12.4498 24.7111 12.4498C24.7111 12.4498 24.5729 11.8283 23.7575 11.6264C23.3218 11.5175 22.8437 11.4484 21.9698 11.2625C21.4625 11.1562 21.4943 10.9995 21.6458 10.8641C21.8503 10.6808 22.27 10.7259 22.5276 10.7472C23.1492 10.803 23.9275 10.9889 24.3551 11.0155C25.0936 11.0606 25.4761 10.5081 25.4761 10.5081C25.4761 10.5081 25.4495 9.87859 24.7323 9.65281C24.0523 9.43765 23.8903 9.52796 23.3564 9.3314C23.0164 9.20656 22.8968 9.06312 23.0323 8.94093C23.1572 8.82937 23.4254 8.82671 23.9434 8.86921C24.6367 8.92499 25.1759 9.04718 25.7018 9.09499C26.6076 9.17734 26.8679 8.60093 26.8679 8.60093C26.8679 8.60093 26.7856 8.10953 26.1428 7.91296C25.8347 7.81734 25.4973 7.78281 24.9687 7.62874C24.7562 7.56765 24.7217 7.45078 24.8093 7.31265C24.897 7.17718 25.1387 7.14796 25.4787 7.18249C26.0684 7.24359 26.2782 7.29406 26.6926 7.35781C27.5161 7.48796 27.9278 7.12671 27.9278 7.12671C27.9278 7.12671 28.0261 6.63531 27.5559 6.46796C27.1229 6.3139 26.8228 6.30062 26.5093 6.21828C26.1959 6.13593 26.2331 6.00312 26.3367 5.92874C26.6926 5.67109 27.7604 6.07484 28.127 6.11468C28.7512 6.18374 29.0912 5.81718 29.0912 5.81718C29.0912 5.81718 29.1868 5.35765 28.7353 5.20093C28.374 5.07609 28.042 5.06281 28.2386 4.88218C28.3342 4.79453 28.6662 4.76531 28.8389 4.77859C29.3648 4.81578 29.5667 4.87156 29.819 4.80515C30.0554 4.74406 30.3689 4.51562 30.5442 4.34296C30.1617 4.09062 29.7207 4.0189 29.2745 3.94984C28.7778 3.87281 28.4989 4.43859 28.2518 4.3589C28.1297 4.31906 28.4033 3.8914 28.1217 3.92062C27.9543 3.93921 27.5931 4.02687 27.4523 4.43062C27.3275 4.78656 27.3036 5.31249 26.9423 5.24078C26.7192 5.19828 26.8095 4.94593 26.8414 4.76796C26.929 4.28984 26.7218 4.21546 26.7218 4.21546C26.7218 4.21546 25.9808 4.20218 25.7311 4.98046C25.5983 5.39218 25.5239 6.11203 25.1839 6.1014C24.8943 6.09343 25.0086 5.7614 25.0033 5.47187C24.9953 5.00968 24.5676 4.9539 24.5676 4.9539C24.5676 4.9539 23.8584 5.09468 23.8186 5.69234C23.8026 5.92078 23.792 6.35374 23.792 6.86109C23.792 7.29406 23.6831 7.63671 23.5184 7.71109C23.1997 7.85718 23.189 7.44812 23.1625 7.02312C23.1359 6.60078 23.1492 6.35906 23.0828 6.17578C22.9845 5.91015 22.44 5.93406 22.44 5.93406C22.44 5.93406 21.845 6.38296 21.8689 6.87171C21.8875 7.25421 21.9486 7.82531 21.9884 8.05374C22.0575 8.45484 22.0522 8.99937 21.8158 9.21187C21.5847 9.41906 21.42 8.77624 21.2447 7.81999C21.0879 6.95937 20.4292 7.06828 20.4292 7.06828C20.4292 7.06828 19.7997 7.54109 19.8979 8.28484C19.9697 8.83734 20.0892 9.23843 20.1901 9.56781C20.4398 10.3859 20.4797 10.6808 20.4026 10.8667C20.0945 11.6105 19.7173 10.3647 19.3826 9.34734C19.1515 8.64343 18.53 8.72577 18.53 8.72577C18.53 8.72577 17.9828 9.24374 18.105 9.8839C18.3068 10.9491 18.6628 11.5494 18.8939 11.9425C19.3242 12.6809 19.4145 13.0077 19.3348 13.2016C19.2472 13.4114 18.8461 13.1989 18.5326 12.6809C18.1979 12.1205 18.0492 11.7831 17.8101 11.0951C17.6056 10.5108 17.3745 10.5851 17.3745 10.5851C17.3745 10.5851 16.8672 11.3103 17.1168 12.1231C17.6162 13.7434 18.6097 14.5403 18.7026 14.6306C18.9258 14.8431 18.6176 14.8591 18.1793 14.6545C17.7012 14.4314 17.0451 13.2175 17.0451 13.2175C17.0451 13.2175 16.8459 13.8576 17.2231 14.6917C17.6614 15.6586 18.3175 15.7755 18.7239 15.8764C19.1993 15.9959 19.3747 15.9216 19.6137 16.2137C20.6072 17.4409 22.0495 17.247 22.2912 17.247C23.4679 17.247 23.5981 16.4236 23.5981 16.4236C23.5981 16.4236 23.4228 16.0517 22.6525 15.9189C22.347 15.8658 22.0256 15.8976 21.0375 15.6108C20.6975 15.5178 20.2353 15.3505 19.9086 15.1725Z" fill="#73B03E"/>
<path d="M15.8126 9.56246C15.8126 9.56246 15.1831 9.82278 15.0981 10.3328C14.9945 10.8507 14.9732 12.3807 14.7023 12.9837C14.5243 13.3768 14.2109 13.1298 14.3331 12.4896C14.4898 11.6768 14.6784 10.6409 14.5535 9.78293C14.4499 9.07637 13.8496 8.63277 13.8496 8.63277C13.8496 8.63277 13.2466 8.71778 13.1829 9.08965C13.0766 9.71387 13.1085 10.2637 13.0713 10.6834C13.0448 10.9756 13.0474 11.4989 12.6782 11.4006C12.4418 11.3395 12.5082 10.6276 12.5162 10.4125C12.5321 9.91043 12.6224 9.67403 12.6145 8.72043C12.6065 7.95278 11.7804 7.53309 11.7804 7.53309C11.7804 7.53309 11.3049 7.65793 11.2306 8.12543C11.119 8.83731 11.1934 9.6209 10.7604 9.48543C10.4788 9.39777 10.6966 8.27152 10.617 7.68184C10.5373 7.07621 9.99274 6.72027 9.99274 6.72027C9.99274 6.72027 9.47477 6.73356 9.43493 7.28074C9.4004 7.78012 9.47477 8.48668 9.02852 8.50262C8.58759 8.51856 8.81602 7.76418 8.68852 6.89559C8.59555 6.2634 7.89165 6.01637 7.89165 6.01637C7.89165 6.01637 7.33649 6.10402 7.3418 6.55027C7.34446 6.72027 7.31259 7.16652 7.03368 7.10809C6.78134 7.05496 6.67509 6.69371 6.61399 6.48652C6.53696 6.23152 6.47587 6.05887 6.27399 5.86496C6.04024 5.63918 5.37087 5.42934 5.34696 5.43996C5.30712 5.45856 5.24868 6.0084 5.33102 6.22621C5.45321 6.55559 5.67899 6.73356 5.87821 7.00184C6.13055 7.33918 5.73743 7.28074 5.46649 7.45074C5.14509 7.65262 5.06805 8.01653 5.06805 8.01653C5.06805 8.01653 5.43993 8.33262 5.81977 8.35918C6.18102 8.38574 6.51837 8.27418 6.84774 8.1759C7.27274 8.04574 7.6818 7.94481 7.81727 8.14402C8.02446 8.44418 7.3179 8.46278 6.81852 8.87184C6.50774 9.12684 6.47587 9.55715 6.47587 9.55715C6.47587 9.55715 7.25415 10.0672 7.64462 9.92903C8.40165 9.65809 8.66993 9.43231 9.03383 9.31543C9.45087 9.17996 9.91571 9.39512 9.43493 9.73246C9.08962 9.97684 8.66462 10.2132 8.38571 10.4948C8.04305 10.8375 8.07227 11.2917 8.07227 11.2917C8.07227 11.2917 8.63274 11.714 9.10024 11.6078C9.87055 11.4325 10.3487 11.0606 10.7577 10.8667C11.2491 10.6356 11.451 10.694 11.6184 10.8295C11.799 10.9782 11.4537 11.127 11.0234 11.3475C10.5266 11.6025 9.97946 12.054 9.77493 12.2745C9.5093 12.5614 9.53587 13.5761 9.53587 13.5761C9.53587 13.5761 10.3699 13.8842 11.0659 13.5628C11.799 13.2254 12.5693 12.4525 12.896 12.5693C13.4007 12.7473 13.0182 13.0315 12.2984 13.6106C11.7512 14.0515 11.2757 14.3703 10.9331 14.7528C10.6116 15.1114 10.6302 16.0304 10.6302 16.0304C10.6302 16.0304 11.0499 16.2801 11.6715 16.227C12.4684 16.1606 13.4963 14.8059 13.8868 14.442C14.1418 14.2056 14.3809 14.519 13.9452 15.3265C13.2732 16.575 12.9598 16.5696 12.6224 17.5286C12.3621 18.275 12.8004 18.9948 12.8004 18.9948C12.8004 18.9948 13.4884 19.1701 13.9559 18.8407C14.3277 18.5804 14.596 18.0731 14.8643 17.3479C14.9281 17.1779 15.0556 16.7689 15.0423 15.7064C15.0343 14.9175 14.8909 15.1273 15.3026 14.4207C16.2641 12.7712 16.5484 12.0248 16.4156 10.7764C16.3385 10.022 15.8126 9.56246 15.8126 9.56246Z" fill="#73B03E"/>
<path d="M19.7333 17.17C19.7333 17.17 18.3441 17.579 17.8819 17.9775C17.4197 18.3786 16.9044 19.0851 16.3519 19.2843C15.7994 19.4836 15.4116 19.4358 15.4116 19.4358C15.4116 19.4358 15.7303 18.1793 16.5856 17.5684C17.4489 16.9495 18.7452 16.6812 19.7333 17.17Z" fill="#A1D65C"/>
<path d="M11.7645 20.424H24.8917V22.7349H11.7645V20.424Z" fill="url(#paint3_linear_0_182)"/>
<path d="M29.835 28.1775C29.8961 27.9597 29.8643 27.6702 29.8722 27.2319C29.8775 26.9769 30.0263 26.9716 30.4592 27.4099C30.6505 27.6038 31.0038 27.6357 31.0038 27.6357C31.0463 26.8228 30.6957 26.5838 30.1352 26.2677C29.6411 25.9914 29.1603 25.8905 29.3808 25.5824C29.4525 25.4814 29.7846 25.6435 29.9546 25.7099C30.956 26.1057 31.0436 25.8002 31.0436 25.8002C31.0436 25.8002 30.9772 25.0246 29.9625 24.6686C29.4738 24.4986 28.6424 24.3764 28.653 24.1294C28.6636 23.8053 29.1258 23.9275 29.3968 23.9939C30.7674 24.3233 30.8922 24.1135 30.8922 24.1135C30.8922 24.1135 30.6133 22.9899 29.3224 22.7667C28.6849 22.6578 27.548 22.5569 27.4922 22.2541C27.4338 21.9327 28.6716 22.116 29.1657 22.1957C29.8536 22.3072 30.0528 22.1292 30.0528 22.1292C30.0528 22.1292 29.7553 21.08 28.2997 20.9552C27.2266 20.8649 26.528 21.0083 26.3553 20.7374C26.2013 20.4903 27.1921 20.4292 28.1483 20.501C28.9 20.5567 29.3064 20.5382 29.3064 20.5382C29.3064 20.5382 29.0196 19.473 27.4444 19.3641C25.8772 19.2552 24.4322 19.6696 24.6128 19.3614C24.8041 19.0374 25.4336 18.9869 26.2305 18.9471C26.6369 18.9285 27.1389 18.9417 27.4046 18.9072C28.0261 18.8275 28.2174 18.5752 28.2174 18.5752C28.2174 18.5752 27.5586 17.9563 26.6024 17.7889C25.7603 17.6428 25.0538 17.7597 24.063 17.9935C23.5185 18.121 22.865 18.3069 22.6818 18.1528C22.5622 18.0546 23.0271 17.7677 23.5211 17.6482C23.9302 17.5499 24.7138 17.4755 25.261 17.4303C25.6063 17.4038 25.8294 17.2896 25.8294 17.2896C25.8294 17.2896 25.686 17.1727 25.4283 17.0425C24.9502 16.8008 24.1374 16.5857 23.3485 16.745C22.873 16.8407 22.5144 16.9283 22.1372 17.2178C21.7494 17.5153 21.5289 17.7916 21.0561 17.7757C20.5833 17.7624 20.3124 17.5685 19.4624 17.8527C19.0932 17.9775 18.3494 18.5141 17.7624 19.1914C17.1514 19.898 17.2789 20.5567 17.2789 20.5567C17.2789 20.5567 17.9218 20.748 18.5699 20.3867C19.481 19.8794 20.57 18.4238 21.0349 18.4769C21.59 18.5407 20.8224 19.0985 20.4611 19.4863C19.6457 20.3575 19.2658 21.1332 19.1569 21.7866C19.0586 22.3789 19.2924 22.6658 19.2924 22.6658C19.2924 22.6658 20.1238 22.5463 20.4797 22.0549C20.995 21.3403 21.5449 20.6683 21.9035 20.1716C22.3444 19.5607 22.5994 19.3614 22.8225 19.2658C23.2582 19.0799 23.6061 19.2074 22.9766 19.9272C22.2249 20.7852 21.5821 21.7255 21.4147 22.3869C21.2527 23.0217 21.5661 23.561 21.5661 23.561C21.5661 23.561 22.3364 23.2927 22.6764 22.8571C23.3564 21.9832 23.5822 21.4811 23.9488 20.9366C24.2357 20.5089 24.5677 20.1663 24.8918 20.2592C25.2397 20.3602 24.8785 20.7799 24.4482 21.4174C24.0816 21.9566 23.6672 22.7375 23.553 23.3086C23.4016 24.0736 23.6327 24.4455 23.6327 24.4455C23.6327 24.4455 24.5571 24.2967 24.8307 23.8771C25.0671 23.5185 25.508 22.6074 25.8161 22.1824C26.0711 21.8291 26.2969 21.3802 26.6103 21.5661C26.775 21.6644 26.613 22.0363 26.265 22.6021C25.9967 23.0377 25.6913 23.6141 25.5452 24.0975C25.3938 24.5969 25.6089 25.1494 25.6089 25.1494C25.6089 25.1494 26.366 25.1839 26.6741 24.5969C26.9318 24.1082 27.1602 23.6938 27.3461 23.3963C27.7446 22.7614 27.9889 23.205 27.6914 23.7628C27.3753 24.3552 27.1549 24.751 27.0008 25.3274C26.9052 25.686 27.0805 26.1667 27.0805 26.1667C27.0805 26.1667 27.556 26.1986 27.8269 25.8533C28.3024 25.2477 28.2891 24.8067 28.568 25.0564C28.7672 25.2371 28.3077 25.8719 28.058 26.3341C27.8083 26.7989 27.9199 27.3355 27.9199 27.3355C27.9199 27.3355 28.5069 27.5427 28.7619 27.03C29.2241 26.1057 29.4393 26.4642 29.3144 26.8839C29.2746 27.0221 29.086 27.6303 29.0461 27.7711C28.8257 28.5175 29.2374 28.8363 29.2374 28.8363C29.2374 28.8363 29.6916 28.6822 29.835 28.1775Z" fill="#A1D65C"/>
<path d="M5.91798 28.9691C5.84361 28.823 5.67626 28.491 5.92595 28.3608C6.21017 28.2094 6.31642 28.6743 6.57673 28.9478C7.02033 29.41 7.41876 29.1975 7.41876 29.1975C7.41876 29.1975 7.71626 28.7725 7.46658 28.1669C7.22486 27.5825 6.70423 27.1761 6.91408 26.8999C7.03095 26.7458 7.36829 26.6289 7.82251 27.4922C8.2422 28.2891 8.90892 28.1403 8.90892 28.1403C8.90892 28.1403 9.37111 27.5746 9.03908 26.7139C8.80798 26.1189 8.3272 25.601 8.43079 25.3114C8.55564 24.9608 8.86376 24.9741 9.16392 25.4947C9.35251 25.8188 9.54111 26.2172 9.78017 26.536C10.2424 27.1575 10.9011 27.1097 10.9011 27.1097C10.9011 27.1097 11.2438 26.5253 10.9755 25.6727C10.84 25.2424 10.6992 24.8971 10.3831 24.2914C10.2264 23.9939 9.94751 23.5849 10.16 23.3378C10.3645 23.1014 10.6594 23.3989 10.9011 23.7628C11.4775 24.6314 11.4988 24.8864 11.791 25.3486C12.2186 26.0207 13.1377 25.9941 13.1377 25.9941C13.1377 25.9941 13.4856 25.3114 13.3502 24.6341C13.1828 23.8107 12.9836 23.221 12.5081 22.4746C12.2956 22.1425 12.0539 21.7149 12.2478 21.5847C12.4338 21.4625 12.7206 21.5927 13.0633 22.1133C13.5281 22.8172 13.8894 23.5025 14.2135 24.0869C14.5933 24.7722 15.5203 24.8838 15.5203 24.8838C15.5203 24.8838 15.8922 24.488 15.5655 23.2768C15.3158 22.3524 14.9705 21.7707 14.7447 21.3536C14.4658 20.8436 13.9797 20.5036 14.2905 20.3628C14.5774 20.2327 14.9545 20.57 15.3663 21.2155C15.7913 21.8822 15.8975 22.3896 16.3942 23.0775C16.8006 23.6433 17.7542 23.5557 17.7542 23.5557C17.7542 23.5557 17.887 23.0138 17.7835 22.4852C17.6772 21.9353 17.3399 21.3005 16.8086 20.6922C15.6213 19.3322 14.8642 19.8953 14.7899 19.6403C14.7553 19.5208 14.8217 19.1543 14.5295 18.6496C14.1099 17.9271 13.0845 17.2471 11.9264 17.2577C11.4616 17.263 10.6302 17.4064 10.2583 17.6668C10.2583 17.6668 10.3008 18.0732 10.8028 18.2936C11.3952 18.5566 12.5825 18.7877 13.0872 19.2552C13.4219 19.5633 13.6317 19.9246 13.2731 19.7785C13.1244 19.7174 12.617 19.3588 12.0858 19.1702C11.5306 18.9736 10.9702 18.8886 10.3035 18.8674C9.30736 18.8355 8.53173 19.2499 8.53173 19.2499C8.53173 19.2499 8.58486 19.5049 9.17189 19.805C9.52517 19.9857 10.6169 20.1477 11.0339 20.3522C11.3766 20.5196 11.682 20.6391 11.4881 20.833C11.366 20.9552 11.1747 20.9153 11.0153 20.8543C10.2769 20.5674 9.14533 20.4213 8.54236 20.3974C7.70564 20.3655 7.10533 20.9153 7.10533 20.9153C7.10533 20.9153 7.10001 21.3696 7.70829 21.5741C8.59017 21.8689 9.89439 21.8158 10.1919 22.1505C10.4814 22.4799 9.75892 22.533 9.08954 22.4082C8.36439 22.27 7.98986 22.2275 6.71751 22.4188C5.85689 22.5463 5.42126 23.1413 5.42126 23.1413C5.42126 23.1413 5.65236 23.6513 6.1172 23.6964C7.04423 23.7894 8.99392 23.6221 8.85048 24.0019C8.72033 24.3446 8.31392 24.318 7.89689 24.2888C7.1372 24.2383 6.46251 24.2011 5.73736 24.3711C4.86611 24.5757 4.56064 25.2982 4.56064 25.2982C4.56064 25.2982 4.77845 25.6727 5.29376 25.6807C6.23939 25.6966 7.41611 25.3699 7.65517 25.585C7.99251 25.8905 7.22486 26.0047 6.81579 26.0233C6.30314 26.0472 5.36282 26.1163 4.83954 26.3739C4.14626 26.7139 4.07986 27.2505 4.07986 27.2505C4.07986 27.2505 4.23126 27.5268 4.94048 27.4736C5.12908 27.4603 5.82236 27.2372 6.09064 27.2877C6.51564 27.37 6.15173 27.6277 5.68157 27.7499C5.54345 27.7844 4.95376 27.9199 4.69611 28.0607C4.42782 28.2068 3.99486 28.3528 3.89923 29.1763C3.89923 29.1763 4.18876 29.3011 4.72798 29.1364C4.98032 29.0594 5.20345 28.8841 5.33361 29.0116C5.46111 29.1391 5.15829 29.511 5.12376 29.8935C5.04939 30.6771 5.50626 31.0171 5.50626 31.0171C5.50626 31.0171 6.02423 30.6903 6.11189 30.0661C6.19689 29.4047 5.97642 29.086 5.91798 28.9691Z" fill="#A1D65C"/>
<defs>
<linearGradient id="paint0_linear_0_182" x1="17.4696" y1="15.7318" x2="17.6659" y2="6.87777" gradientUnits="userSpaceOnUse">
<stop offset="0.365" stop-color="#1B5E20"/>
<stop offset="0.95" stop-color="#2E7D32"/>
</linearGradient>
<radialGradient id="paint1_radial_0_182" cx="0" cy="0" r="1" gradientUnits="userSpaceOnUse" gradientTransform="translate(22.7025 18.9529) scale(7.35356)">
<stop offset="0.209" stop-color="#1B5E20"/>
<stop offset="0.74" stop-color="#2E7D32"/>
</radialGradient>
<radialGradient id="paint2_radial_0_182" cx="0" cy="0" r="1" gradientUnits="userSpaceOnUse" gradientTransform="translate(16.8302 21.4264) scale(8.90747 8.90747)">
<stop offset="0.209" stop-color="#1B5E20"/>
<stop offset="0.74" stop-color="#2E7D32"/>
</radialGradient>
<linearGradient id="paint3_linear_0_182" x1="18.3276" y1="22.2897" x2="18.3276" y2="20.399" gradientUnits="userSpaceOnUse">
<stop stop-color="#5D4037"/>
<stop offset="1" stop-color="#5D4037" stop-opacity="0"/>
</linearGradient>
</defs>
</svg>
